<svg xmlns="http://www.w3.org/2000/svg" width="128" height="128" viewBox="0 0 33.867 33.867"><defs><clipPath id="a" clipPathUnits="userSpaceOnUse"><path d="M71.82-112.862h43.866v43.866H71.82Zm32.516 21.933a10.583 10.583 0 0 0-10.583-10.583A10.583 10.583 0 0 0 83.17-90.93a10.583 10.583 0 0 0 10.583 10.583 10.583 10.583 0 0 0 10.583-10.583Z" class="powerclip" style="fill:#000;fill-opacity:1;stroke-width:.33501"/></clipPath></defs><path d="m48.34 20.96-7.094 2.381a10.583 10.583 0 0 1 5.85 9.466 10.583 10.583 0 0 1-3.1 7.483l2.244 2.245a13.758 13.758 0 0 0 4.03-9.728 13.758 13.758 0 0 0-3.348-8.997z" style="fill:#000;fill-opacity:1;stroke-width:.65086" transform="translate(-22.225 -14.814)"/><path d="M110.686-90.93a16.933 16.933 0 0 1-16.933 16.934A16.933 16.933 0 0 1 76.82-90.929a16.933 16.933 0 0 1 16.933-16.933 16.933 16.933 0 0 1 16.933 16.933Z" clip-path="url(#a)" style="fill:#000;fill-opacity:1;stroke-width:.536018" transform="matrix(.5 0 0 .5 -32.589 63.458)"/></svg>