<?xml version="1.0" encoding="UTF-8" standalone="no"?>
<!-- Created with Inkscape (http://www.inkscape.org/) -->

<svg
   width="1920"
   height="1080"
   viewBox="0 0 508 285.75"
   version="1.1"
   id="svg5"
   xml:space="preserve"
   sodipodi:docname="concept.svg"
   inkscape:version="1.2.2 (1:1.2.2+202212051551+b0a8486541)"
   xmlns:inkscape="http://www.inkscape.org/namespaces/inkscape"
   xmlns:sodipodi="http://sodipodi.sourceforge.net/DTD/sodipodi-0.dtd"
   xmlns="http://www.w3.org/2000/svg"
   xmlns:svg="http://www.w3.org/2000/svg"><sodipodi:namedview
     id="namedview7"
     pagecolor="#505050"
     bordercolor="#eeeeee"
     borderopacity="1"
     inkscape:showpageshadow="0"
     inkscape:pageopacity="0"
     inkscape:pagecheckerboard="0"
     inkscape:deskcolor="#505050"
     inkscape:document-units="px"
     showgrid="false"
     inkscape:zoom="0.51274508"
     inkscape:cx="1303.7668"
     inkscape:cy="466.11857"
     inkscape:window-width="1920"
     inkscape:window-height="985"
     inkscape:window-x="0"
     inkscape:window-y="0"
     inkscape:window-maximized="1"
     inkscape:current-layer="layer1" /><defs
     id="defs2"><rect
       x="491.4994"
       y="757.24763"
       width="212.04422"
       height="165.50626"
       id="rect21228" /><inkscape:path-effect
       effect="powerclip"
       id="path-effect2831"
       is_visible="true"
       lpeversion="1"
       inverse="true"
       flatten="false"
       hide_clip="false"
       message="Jeśli po konwersji przycięcia na ścieżki nie zostanie spłaszczony wynik, użyj reguły wypełniania w oknie dialogowym &lt;b&gt;wypełnienie i obrys&lt;/b&gt; ." /><inkscape:path-effect
       effect="fillet_chamfer"
       id="path-effect1822"
       is_visible="true"
       lpeversion="1"
       nodesatellites_param="F,0,0,1,0,8,0,1 @ F,0,0,1,0,8,0,1 @ F,0,0,1,0,8,0,1 @ F,0,0,1,0,8,0,1"
       unit="px"
       method="auto"
       mode="F"
       radius="8"
       chamfer_steps="1"
       flexible="false"
       use_knot_distance="true"
       apply_no_radius="true"
       apply_with_radius="true"
       only_selected="false"
       hide_knots="false" /><inkscape:path-effect
       effect="fillet_chamfer"
       id="path-effect1820"
       is_visible="true"
       lpeversion="1"
       nodesatellites_param="F,0,0,1,0,8,0,1 @ F,0,0,1,0,8,0,1 @ F,0,0,1,0,8,0,1 @ F,0,0,1,0,8,0,1"
       unit="px"
       method="auto"
       mode="F"
       radius="8"
       chamfer_steps="1"
       flexible="false"
       use_knot_distance="true"
       apply_no_radius="true"
       apply_with_radius="true"
       only_selected="false"
       hide_knots="false" /><inkscape:path-effect
       effect="fillet_chamfer"
       id="path-effect1818"
       is_visible="true"
       lpeversion="1"
       nodesatellites_param="F,0,0,1,0,8,0,1 @ F,0,0,1,0,8,0,1 @ F,0,0,1,0,8,0,1 @ F,0,0,1,0,8,0,1"
       unit="px"
       method="auto"
       mode="F"
       radius="8"
       chamfer_steps="1"
       flexible="false"
       use_knot_distance="true"
       apply_no_radius="true"
       apply_with_radius="true"
       only_selected="false"
       hide_knots="false" /><inkscape:path-effect
       effect="fillet_chamfer"
       id="path-effect1816"
       is_visible="true"
       lpeversion="1"
       nodesatellites_param="F,0,0,1,0,8,0,1 @ F,0,0,1,0,8,0,1 @ F,0,0,1,0,8,0,1 @ F,0,0,1,0,8,0,1"
       unit="px"
       method="auto"
       mode="F"
       radius="8"
       chamfer_steps="1"
       flexible="false"
       use_knot_distance="true"
       apply_no_radius="true"
       apply_with_radius="true"
       only_selected="false"
       hide_knots="false" /><inkscape:path-effect
       effect="fillet_chamfer"
       id="path-effect1056"
       is_visible="true"
       lpeversion="1"
       nodesatellites_param="F,0,0,1,0,0,0,1 @ F,0,0,1,0,8,0,1 @ F,0,0,1,0,8,0,1 @ F,0,0,1,0,0,0,1"
       unit="px"
       method="auto"
       mode="F"
       radius="8"
       chamfer_steps="1"
       flexible="false"
       use_knot_distance="true"
       apply_no_radius="true"
       apply_with_radius="true"
       only_selected="false"
       hide_knots="false" /><inkscape:path-effect
       effect="fillet_chamfer"
       id="path-effect392"
       is_visible="true"
       lpeversion="1"
       nodesatellites_param="F,0,0,1,0,8,0,2 @ F,0,0,1,0,8,0,2 @ F,0,0,1,0,8,0,2 @ F,0,0,1,0,8,0,2"
       unit="px"
       method="bezier"
       mode="F"
       radius="8"
       chamfer_steps="1"
       flexible="false"
       use_knot_distance="true"
       apply_no_radius="true"
       apply_with_radius="true"
       only_selected="false"
       hide_knots="false" /><inkscape:path-effect
       effect="fillet_chamfer"
       id="path-effect1056-7"
       is_visible="true"
       lpeversion="1"
       nodesatellites_param="F,0,0,1,0,0,0,1 @ F,0,0,1,0,8,0,1 @ F,0,0,1,0,8,0,1 @ F,0,0,1,0,0,0,1"
       unit="px"
       method="auto"
       mode="F"
       radius="8"
       chamfer_steps="1"
       flexible="false"
       use_knot_distance="true"
       apply_no_radius="true"
       apply_with_radius="true"
       only_selected="false"
       hide_knots="false" /><inkscape:path-effect
       effect="fillet_chamfer"
       id="path-effect1056-7-3"
       is_visible="true"
       lpeversion="1"
       nodesatellites_param="F,0,0,1,0,0,0,1 @ F,0,0,1,0,8,0,1 @ F,0,0,1,0,8,0,1 @ F,0,0,1,0,0,0,1"
       unit="px"
       method="auto"
       mode="F"
       radius="8"
       chamfer_steps="1"
       flexible="false"
       use_knot_distance="true"
       apply_no_radius="true"
       apply_with_radius="true"
       only_selected="false"
       hide_knots="false" /><inkscape:path-effect
       effect="fillet_chamfer"
       id="path-effect1816-0"
       is_visible="true"
       lpeversion="1"
       nodesatellites_param="F,0,0,1,0,8,0,1 @ F,0,0,1,0,8,0,1 @ F,0,0,1,0,8,0,1 @ F,0,0,1,0,8,0,1"
       unit="px"
       method="auto"
       mode="F"
       radius="8"
       chamfer_steps="1"
       flexible="false"
       use_knot_distance="true"
       apply_no_radius="true"
       apply_with_radius="true"
       only_selected="false"
       hide_knots="false" /><inkscape:path-effect
       effect="fillet_chamfer"
       id="path-effect1816-0-3"
       is_visible="true"
       lpeversion="1"
       nodesatellites_param="F,0,0,1,0,8,0,1 @ F,0,0,1,0,8,0,1 @ F,0,0,1,0,8,0,1 @ F,0,0,1,0,8,0,1"
       unit="px"
       method="auto"
       mode="F"
       radius="8"
       chamfer_steps="1"
       flexible="false"
       use_knot_distance="true"
       apply_no_radius="true"
       apply_with_radius="true"
       only_selected="false"
       hide_knots="false" /><clipPath
       clipPathUnits="userSpaceOnUse"
       id="clipPath2827"><circle
         style="display:none;fill:#000000;fill-opacity:1;stroke-width:0.33501"
         id="circle2829"
         cx="93.753021"
         cy="-90.929153"
         r="10.583333" /></clipPath><clipPath
       clipPathUnits="userSpaceOnUse"
       id="clipPath2827-8"><circle
         style="display:none;fill:#000000;fill-opacity:1;stroke-width:0.33501"
         id="circle2829-7"
         cx="93.753021"
         cy="-90.929153"
         r="10.583333"
         d="M 104.33635,-90.929153 A 10.583333,10.583333 0 0 1 93.753021,-80.34582 10.583333,10.583333 0 0 1 83.169688,-90.929153 10.583333,10.583333 0 0 1 93.753021,-101.51249 10.583333,10.583333 0 0 1 104.33635,-90.929153 Z" /><path
         id="lpe_path-effect2831"
         style="fill:#000000;fill-opacity:1;stroke-width:0.33501"
         class="powerclip"
         d="m 71.819689,-112.86249 h 43.866661 v 43.866669 H 71.819689 Z m 32.516661,21.933337 A 10.583333,10.583333 0 0 0 93.753021,-101.51249 10.583333,10.583333 0 0 0 83.169688,-90.929153 10.583333,10.583333 0 0 0 93.753021,-80.34582 10.583333,10.583333 0 0 0 104.33635,-90.929153 Z" /></clipPath><inkscape:path-effect
       effect="powerclip"
       id="path-effect2831-9"
       is_visible="true"
       lpeversion="1"
       inverse="true"
       flatten="false"
       hide_clip="false"
       message="Jeśli po konwersji przycięcia na ścieżki nie zostanie spłaszczony wynik, użyj reguły wypełniania w oknie dialogowym &lt;b&gt;wypełnienie i obrys&lt;/b&gt; ." /><clipPath
       clipPathUnits="userSpaceOnUse"
       id="clipath_lpe_path-effect2831-9"><circle
         style="display:none;fill:#000000;fill-opacity:1;stroke-width:0.33501"
         id="circle11832"
         cx="93.753021"
         cy="-90.929153"
         r="10.583333" /></clipPath><clipPath
       clipPathUnits="userSpaceOnUse"
       id="clipPath2827-2"><circle
         style="display:none;fill:#000000;fill-opacity:1;stroke-width:0.33501"
         id="circle2829-0"
         cx="93.753021"
         cy="-90.929153"
         r="10.583333"
         d="M 104.33635,-90.929153 A 10.583333,10.583333 0 0 1 93.753021,-80.34582 10.583333,10.583333 0 0 1 83.169688,-90.929153 10.583333,10.583333 0 0 1 93.753021,-101.51249 10.583333,10.583333 0 0 1 104.33635,-90.929153 Z" /><path
         id="lpe_path-effect2831-2"
         style="fill:#000000;fill-opacity:1;stroke-width:0.33501"
         class="powerclip"
         d="m 71.819689,-112.86249 h 43.866661 v 43.866669 H 71.819689 Z m 32.516661,21.933337 A 10.583333,10.583333 0 0 0 93.753021,-101.51249 10.583333,10.583333 0 0 0 83.169688,-90.929153 10.583333,10.583333 0 0 0 93.753021,-80.34582 10.583333,10.583333 0 0 0 104.33635,-90.929153 Z" /></clipPath><inkscape:path-effect
       effect="powerclip"
       id="path-effect2831-3"
       is_visible="true"
       lpeversion="1"
       inverse="true"
       flatten="false"
       hide_clip="false"
       message="Jeśli po konwersji przycięcia na ścieżki nie zostanie spłaszczony wynik, użyj reguły wypełniania w oknie dialogowym &lt;b&gt;wypełnienie i obrys&lt;/b&gt; ." /><clipPath
       clipPathUnits="userSpaceOnUse"
       id="clipath_lpe_path-effect2831-3"><circle
         style="display:none;fill:#000000;fill-opacity:1;stroke-width:0.33501"
         id="circle12640"
         cx="93.753021"
         cy="-90.929153"
         r="10.583333"
         d="M 104.33635,-90.929153 A 10.583333,10.583333 0 0 1 93.753021,-80.34582 10.583333,10.583333 0 0 1 83.169688,-90.929153 10.583333,10.583333 0 0 1 93.753021,-101.51249 10.583333,10.583333 0 0 1 104.33635,-90.929153 Z" /><path
         id="lpe_path-effect2831-3"
         style="fill:#000000;fill-opacity:1;stroke-width:0.33501"
         class="powerclip"
         d="m 71.819689,-112.86249 h 43.866661 v 43.866669 H 71.819689 Z m 32.516661,21.933337 A 10.583333,10.583333 0 0 0 93.753021,-101.51249 10.583333,10.583333 0 0 0 83.169688,-90.929153 10.583333,10.583333 0 0 0 93.753021,-80.34582 10.583333,10.583333 0 0 0 104.33635,-90.929153 Z" /></clipPath><inkscape:path-effect
       effect="fillet_chamfer"
       id="path-effect1056-75"
       is_visible="true"
       lpeversion="1"
       nodesatellites_param="F,0,0,1,0,0,0,1 @ F,0,0,1,0,8,0,1 @ F,0,0,1,0,8,0,1 @ F,0,0,1,0,0,0,1"
       unit="px"
       method="auto"
       mode="F"
       radius="8"
       chamfer_steps="1"
       flexible="false"
       use_knot_distance="true"
       apply_no_radius="true"
       apply_with_radius="true"
       only_selected="false"
       hide_knots="false" /><inkscape:path-effect
       effect="fillet_chamfer"
       id="path-effect1056-75-2"
       is_visible="true"
       lpeversion="1"
       nodesatellites_param="F,0,0,1,0,0,0,1 @ F,0,0,1,0,8,0,1 @ F,0,0,1,0,8,0,1 @ F,0,0,1,0,0,0,1"
       unit="px"
       method="auto"
       mode="F"
       radius="8"
       chamfer_steps="1"
       flexible="false"
       use_knot_distance="true"
       apply_no_radius="true"
       apply_with_radius="true"
       only_selected="false"
       hide_knots="false" /><rect
       x="491.4994"
       y="757.24763"
       width="212.04422"
       height="165.50626"
       id="rect22484" /><rect
       x="491.49939"
       y="757.24762"
       width="212.04422"
       height="165.50626"
       id="rect21228-0" /><inkscape:path-effect
       effect="fillet_chamfer"
       id="path-effect1820-6"
       is_visible="true"
       lpeversion="1"
       nodesatellites_param="F,0,0,1,0,8,0,1 @ F,0,0,1,0,8,0,1 @ F,0,0,1,0,8,0,1 @ F,0,0,1,0,8,0,1"
       unit="px"
       method="auto"
       mode="F"
       radius="8"
       chamfer_steps="1"
       flexible="false"
       use_knot_distance="true"
       apply_no_radius="true"
       apply_with_radius="true"
       only_selected="false"
       hide_knots="false" /><inkscape:path-effect
       effect="fillet_chamfer"
       id="path-effect1820-9"
       is_visible="true"
       lpeversion="1"
       nodesatellites_param="F,0,0,1,0,8,0,1 @ F,0,0,1,0,8,0,1 @ F,0,0,1,0,8,0,1 @ F,0,0,1,0,8,0,1"
       unit="px"
       method="auto"
       mode="F"
       radius="8"
       chamfer_steps="1"
       flexible="false"
       use_knot_distance="true"
       apply_no_radius="true"
       apply_with_radius="true"
       only_selected="false"
       hide_knots="false" /><inkscape:path-effect
       effect="fillet_chamfer"
       id="path-effect1822-2"
       is_visible="true"
       lpeversion="1"
       nodesatellites_param="F,0,0,1,0,8,0,1 @ F,0,0,1,0,8,0,1 @ F,0,0,1,0,8,0,1 @ F,0,0,1,0,8,0,1"
       unit="px"
       method="auto"
       mode="F"
       radius="8"
       chamfer_steps="1"
       flexible="false"
       use_knot_distance="true"
       apply_no_radius="true"
       apply_with_radius="true"
       only_selected="false"
       hide_knots="false" /><inkscape:path-effect
       effect="fillet_chamfer"
       id="path-effect1822-2-9"
       is_visible="true"
       lpeversion="1"
       nodesatellites_param="F,0,0,1,0,8,0,1 @ F,0,0,1,0,8,0,1 @ F,0,0,1,0,8,0,1 @ F,0,0,1,0,8,0,1"
       unit="px"
       method="auto"
       mode="F"
       radius="8"
       chamfer_steps="1"
       flexible="false"
       use_knot_distance="true"
       apply_no_radius="true"
       apply_with_radius="true"
       only_selected="false"
       hide_knots="false" /></defs><g
     inkscape:label="Warstwa 1"
     inkscape:groupmode="layer"
     id="layer1"><rect
       style="fill:#373737;stroke-width:0.499999;fill-opacity:1"
       id="rect394"
       width="508"
       height="285.75"
       x="0"
       y="0" /><path
       id="rect234"
       style="fill:#a1beb0;fill-opacity:1;stroke-width:0.471379"
       d="m 84.2,16.933332 h 398.86667 c 4.41828,0 8,3.581722 8,8 V 260.81666 c 0,4.41828 -3.58172,8 -8,8 l -398.86667,0 c -4.418278,0 -8,-3.58172 -8,-8 l 0,-235.883328 c 0,-4.418278 3.581722,-8 8,-8 z"
       inkscape:path-effect="#path-effect392"
       inkscape:original-d="M 76.2,16.933332 H 491.06667 V 268.81666 H 76.2 Z" /><path
       style="fill:#a1beb0;fill-opacity:1;stroke-width:0.624172"
       id="rect1002"
       width="59.266666"
       height="59.266666"
       x="0"
       y="16.933332"
       inkscape:path-effect="#path-effect1056"
       d="m 0,16.933332 h 51.266666 a 8,8 45 0 1 8,8 l 0,43.266667 a 8,8 135 0 1 -8,8 H 0 Z"
       sodipodi:type="rect" /><path
       style="fill:#a1beb0;fill-opacity:1;stroke-width:0.624172"
       id="rect1002-9"
       width="59.266666"
       height="59.266666"
       x="-2.7755576e-17"
       y="93.133331"
       inkscape:path-effect="#path-effect1056-75"
       d="m 0,93.133331 h 51.266666 a 8,8 45 0 1 8,7.999999 l 0,43.26667 a 8,8 135 0 1 -8,8 H 0 Z"
       sodipodi:type="rect" /><path
       style="fill:#a1beb0;fill-opacity:1;stroke-width:0.624172"
       id="rect1002-9-2"
       width="59.266666"
       height="59.266666"
       x="0"
       y="169.33333"
       inkscape:path-effect="#path-effect1056-75-2"
       d="m 0,169.33333 h 51.266666 a 8,8 45 0 1 8,8 l 0,43.26666 a 8,8 135 0 1 -8,8 H 0 Z"
       sodipodi:type="rect" /><rect
       style="fill:#373737;fill-opacity:1;stroke-width:0.370941"
       id="rect1172"
       width="16.933332"
       height="135.46666"
       x="143.93333"
       y="42.333332" /><rect
       style="fill:#373737;fill-opacity:1;stroke-width:0.370941"
       id="rect1172-6"
       width="16.933332"
       height="135.46666"
       x="228.59999"
       y="42.333332" /><path
       style="fill:#373737;fill-opacity:1;stroke-width:0.520036"
       id="rect1654"
       width="67.73333"
       height="42.333332"
       x="118.53333"
       y="194.73334"
       inkscape:path-effect="#path-effect1816"
       d="m 126.53333,194.73334 h 51.73333 a 8,8 45 0 1 8,8 v 26.33333 a 8,8 135 0 1 -8,8 h -51.73333 a 8,8 45 0 1 -8,-8 v -26.33333 a 8,8 135 0 1 8,-8 z"
       sodipodi:type="rect" /><path
       style="fill:#656565;fill-opacity:1;stroke-width:0.520036"
       id="rect1654-9"
       width="50.799999"
       height="21.166666"
       x="127.00001"
       y="125.32656"
       inkscape:path-effect="#path-effect1816-0"
       d="m 135.00001,125.32656 34.8,0 a 8,8 45 0 1 8,8 v 5.16667 a 8,8 135 0 1 -8,8 h -34.8 a 8,8 45 0 1 -8,-8 v -5.16667 a 8,8 135 0 1 8,-8 z"
       sodipodi:type="rect" /><path
       style="fill:#656565;fill-opacity:1;stroke-width:0.520036"
       id="rect1654-9-6"
       width="50.799999"
       height="21.166666"
       x="211.66666"
       y="125.32656"
       inkscape:path-effect="#path-effect1816-0-3"
       d="m 219.66666,125.32656 34.8,0 a 8,8 45 0 1 8,8 v 5.16667 a 8,8 135 0 1 -8,8 h -34.8 a 8,8 45 0 1 -8,-8 v -5.16667 a 8,8 135 0 1 8,-8 z"
       sodipodi:type="rect" /><path
       style="fill:#373737;fill-opacity:1;stroke-width:0.520036"
       id="rect1654-2"
       width="67.73333"
       height="42.333332"
       x="203.2"
       y="194.73334"
       inkscape:path-effect="#path-effect1818"
       d="m 211.2,194.73334 h 51.73333 a 8,8 45 0 1 8,8 v 26.33333 a 8,8 135 0 1 -8,8 H 211.2 a 8,8 45 0 1 -8,-8 v -26.33333 a 8,8 135 0 1 8,-8 z"
       sodipodi:type="rect" /><path
       style="fill:#591515;fill-opacity:1;stroke-width:0.520036"
       id="rect1654-2-9"
       width="67.73333"
       height="42.333332"
       x="355.60001"
       y="160.86667"
       inkscape:path-effect="#path-effect1822"
       d="m 363.60001,160.86667 h 51.73333 a 8,8 45 0 1 8,8 V 195.2 a 8,8 135 0 1 -8,8 h -51.73333 a 8,8 45 0 1 -8,-8 v -26.33333 a 8,8 135 0 1 8,-8 z"
       sodipodi:type="rect" /><path
       style="fill:#591515;fill-opacity:1;stroke-width:0.520036"
       id="rect1654-2-9-70"
       width="67.73333"
       height="42.333332"
       x="526.77826"
       y="121.70833"
       inkscape:path-effect="#path-effect1822-2"
       d="m 534.77826,121.70833 h 51.73333 a 8,8 45 0 1 8,8 v 26.33333 a 8,8 135 0 1 -8,8 h -51.73333 a 8,8 45 0 1 -8,-8 v -26.33333 a 8,8 135 0 1 8,-8 z"
       sodipodi:type="rect" /><path
       style="fill:#ff1a1a;fill-opacity:1;stroke-width:0.520036"
       id="rect1654-2-9-70-3"
       width="67.73333"
       height="42.333332"
       x="526.17444"
       y="175.68332"
       inkscape:path-effect="#path-effect1822-2-9"
       d="m 534.17444,175.68332 h 51.73333 a 8,8 45 0 1 8,8 v 26.33333 a 8,8 135 0 1 -8,8 h -51.73333 a 8,8 45 0 1 -8,-8 v -26.33333 a 8,8 135 0 1 8,-8 z"
       sodipodi:type="rect" /><path
       style="fill:#456454;fill-opacity:1;stroke-width:0.520036"
       id="rect1654-2-9-7"
       width="67.73333"
       height="42.333332"
       x="355.60001"
       y="67.73333"
       inkscape:path-effect="#path-effect1820"
       d="m 363.60001,67.73333 h 51.73333 a 8,8 45 0 1 8,8 v 26.33333 a 8,8 135 0 1 -8,8 h -51.73333 a 8,8 45 0 1 -8,-8 V 75.73333 a 8,8 135 0 1 8,-8 z"
       sodipodi:type="rect" /><path
       style="fill:#456454;fill-opacity:1;stroke-width:0.520036"
       id="rect1654-2-9-7-1"
       width="67.73333"
       height="42.333332"
       x="526.08649"
       y="13.758331"
       inkscape:path-effect="#path-effect1820-9"
       d="m 534.08649,13.758331 h 51.73333 a 8,8 45 0 1 8,8 v 26.333332 a 8,8 135 0 1 -8,8 h -51.73333 a 8,8 45 0 1 -8,-8 V 21.758331 a 8,8 135 0 1 8,-8 z"
       sodipodi:type="rect" /><path
       style="fill:#00fd7a;fill-opacity:1;stroke-width:0.520036"
       id="rect1654-2-9-7-2"
       width="67.73333"
       height="42.333332"
       x="526.77826"
       y="67.73333"
       inkscape:path-effect="#path-effect1820-6"
       d="m 534.77826,67.73333 h 51.73333 a 8,8 45 0 1 8,8 v 26.33333 a 8,8 135 0 1 -8,8 h -51.73333 a 8,8 45 0 1 -8,-8 V 75.73333 a 8,8 135 0 1 8,-8 z"
       sodipodi:type="rect" /><g
       id="g12208"
       transform="translate(51.058192,-72.750133)"><g
         id="g16338"
         transform="translate(-60.677991,87.565256)"><circle
           id="path1568"
           style="fill:#373737;stroke:#000000;stroke-width:0.264583"
           cx="137.22017"
           cy="-16.50499"
           r="0.0046434668"
           transform="translate(-57.088338,69.831959)" /><path
           id="path2825"
           style="fill:#373737;fill-opacity:1;stroke-width:1.30172"
           d="m 57.521036,10.171472 -14.188281,4.763534 a 21.166666,21.166666 0 0 1 11.700578,18.93166 21.166666,21.166666 0 0 1 -6.199622,14.967045 l 4.488615,4.488615 A 27.516666,27.516666 0 0 0 61.383333,33.866666 27.516666,27.516666 0 0 0 54.68555,15.87345 Z" /><path
           style="fill:#373737;fill-opacity:1;stroke-width:0.536018"
           id="path2687"
           clip-path="url(#clipath_lpe_path-effect2831-3)"
           transform="translate(-59.886355,124.79582)"
           d="M 110.68635,-90.929153 A 16.933332,16.933332 0 0 1 93.753021,-73.995821 16.933332,16.933332 0 0 1 76.819689,-90.929153 16.933332,16.933332 0 0 1 93.753021,-107.86249 16.933332,16.933332 0 0 1 110.68635,-90.929153 Z"
           sodipodi:type="arc"
           sodipodi:ry="16.933332"
           sodipodi:rx="16.933332"
           sodipodi:cy="-90.929153"
           sodipodi:cx="93.753021"
           inkscape:path-effect="#path-effect2831-3" /><circle
           id="path1225"
           style="fill:#373737;stroke:#000000;stroke-width:0.264583"
           cx="39.79958"
           cy="67.387756"
           r="0.27295724" /></g></g><text
       xml:space="preserve"
       transform="matrix(0.26458333,0,0,0.26458333,2.2510531,-2.1110764)"
       id="text21226"
       style="font-style:normal;font-variant:normal;font-weight:600;font-stretch:normal;font-size:122.667px;font-family:'Josefin Sans';-inkscape-font-specification:'Josefin Sans Semi-Bold';white-space:pre;shape-inside:url(#rect21228);fill:#ffffff;fill-opacity:1;stroke-width:1.88976"><tspan
         x="491.5"
         y="864.58167"
         id="tspan4987">4.6</tspan></text><text
       xml:space="preserve"
       transform="matrix(0.26458333,0,0,0.26458333,89.644003,-2.0137095)"
       id="text21226-9"
       style="font-style:normal;font-variant:normal;font-weight:600;font-stretch:normal;font-size:122.667px;font-family:'Josefin Sans';-inkscape-font-specification:'Josefin Sans Semi-Bold';white-space:pre;shape-inside:url(#rect21228-0);display:inline;fill:#ffffff;fill-opacity:1;stroke-width:1.88976"><tspan
         x="491.5"
         y="864.58167"
         id="tspan4989">1.2</tspan></text><text
       xml:space="preserve"
       transform="matrix(0.26458333,0,0,0.26458333,1.6993002,-3.9610481)"
       id="text22482"
       style="font-style:normal;font-variant:normal;font-weight:600;font-stretch:normal;font-size:122.667px;font-family:'Josefin Sans';-inkscape-font-specification:'Josefin Sans Semi-Bold';white-space:pre;shape-inside:url(#rect22484);fill:#000000;fill-opacity:1;stroke-width:1.88976"><tspan
         x="491.5"
         y="1031.2855"
         id="tspan4993"><tspan
           dx="0 85.351791 46.599091"
           style="font-weight:bold;font-family:'DejaVu Sans';-inkscape-font-specification:'DejaVu Sans Bold'"
           id="tspan4991">4,6</tspan></tspan></text></g></svg>
