<?xml version="1.0" encoding="UTF-8" standalone="no"?>
<svg
   width="512"
   height="512"
   viewBox="0 0 135.468 135.468"
   version="1.1"
   id="svg11"
   sodipodi:docname="icon.svg"
   inkscape:version="1.2.2 (1:1.2.2+202305151914+b0a8486541)"
   inkscape:export-filename="logo192.png"
   inkscape:export-xdpi="36"
   inkscape:export-ydpi="36"
   xmlns:inkscape="http://www.inkscape.org/namespaces/inkscape"
   xmlns:sodipodi="http://sodipodi.sourceforge.net/DTD/sodipodi-0.dtd"
   xmlns="http://www.w3.org/2000/svg"
   xmlns:svg="http://www.w3.org/2000/svg">
  <sodipodi:namedview
     id="namedview13"
     pagecolor="#505050"
     bordercolor="#eeeeee"
     borderopacity="1"
     inkscape:showpageshadow="0"
     inkscape:pageopacity="0"
     inkscape:pagecheckerboard="0"
     inkscape:deskcolor="#505050"
     showgrid="false"
     inkscape:zoom="0.8359375"
     inkscape:cx="147.73832"
     inkscape:cy="349.30841"
     inkscape:window-width="1920"
     inkscape:window-height="986"
     inkscape:window-x="0"
     inkscape:window-y="0"
     inkscape:window-maximized="1"
     inkscape:current-layer="svg11" />
  <defs
     id="defs5">
    <clipPath
       id="a"
       clipPathUnits="userSpaceOnUse">
      <path
         d="m 71.82,-112.862 h 43.866 v 43.866 H 71.82 Z m 32.516,21.933 A 10.583,10.583 0 0 0 93.753,-101.512 10.583,10.583 0 0 0 83.17,-90.93 10.583,10.583 0 0 0 93.753,-80.347 10.583,10.583 0 0 0 104.336,-90.93 Z"
         class="powerclip"
         style="fill:#000000;fill-opacity:1;stroke-width:0.33501"
         id="path2" />
    </clipPath>
  </defs>
  <path
     d="M 115.48018,11.63866 78.591545,24.019936 a 55.031342,55.031936 0 0 1 30.419855,49.2235 55.031342,55.031936 0 0 1 -16.119921,38.911844 l 11.668741,11.67406 A 71.541265,71.542036 0 0 0 125.51613,73.243436 71.541265,71.542036 0 0 0 108.10661,26.45875 Z"
     style="fill:#a1beb0;fill-opacity:1;stroke-width:3.38446"
     id="path7" />
  <path
     d="m 110.686,-90.93 a 16.933,16.933 0 0 1 -16.933,16.934 16.933,16.933 0 0 1 -16.933,-16.933 16.933,16.933 0 0 1 16.933,-16.933 16.933,16.933 0 0 1 16.933,16.933 z"
     clip-path="url(#a)"
     style="fill:#a1beb0;fill-opacity:1;stroke-width:0.536018"
     transform="matrix(2.5999878,0,0,2.6000159,-189.77919,309.66288)"
     id="path9" />
</svg>
