<?xml version="1.0" encoding="UTF-8" standalone="no"?>
<svg
   width="512"
   height="512"
   viewBox="0 0 135.468 135.468"
   version="1.1"
   id="svg11"
   sodipodi:docname="rotation.svg"
   inkscape:version="1.2.2 (1:1.2.2+202305151914+b0a8486541)"
   xmlns:inkscape="http://www.inkscape.org/namespaces/inkscape"
   xmlns:sodipodi="http://sodipodi.sourceforge.net/DTD/sodipodi-0.dtd"
   xmlns="http://www.w3.org/2000/svg"
   xmlns:svg="http://www.w3.org/2000/svg">
  <sodipodi:namedview
     id="namedview13"
     pagecolor="#505050"
     bordercolor="#eeeeee"
     borderopacity="1"
     inkscape:showpageshadow="0"
     inkscape:pageopacity="0"
     inkscape:pagecheckerboard="0"
     inkscape:deskcolor="#505050"
     showgrid="false"
     inkscape:zoom="0.8359375"
     inkscape:cx="108.85981"
     inkscape:cy="260.78505"
     inkscape:window-width="1920"
     inkscape:window-height="986"
     inkscape:window-x="0"
     inkscape:window-y="0"
     inkscape:window-maximized="1"
     inkscape:current-layer="svg11" />
  <defs
     id="defs5">
    <clipPath
       id="a"
       clipPathUnits="userSpaceOnUse">
      <path
         d="m 71.82,-112.862 h 43.866 v 43.866 H 71.82 Z m 32.516,21.933 A 10.583,10.583 0 0 0 93.753,-101.512 10.583,10.583 0 0 0 83.17,-90.93 10.583,10.583 0 0 0 93.753,-80.347 10.583,10.583 0 0 0 104.336,-90.93 Z"
         class="powerclip"
         style="fill:#000000;fill-opacity:1;stroke-width:0.33501"
         id="path2" />
    </clipPath>
  </defs>
  <path
     d="m 104.46183,24.583738 -28.375869,9.524058 a 42.331801,42.332257 0 0 1 23.39989,37.86423 42.331801,42.332257 0 0 1 -12.399941,29.932184 l 8.975957,8.98005 A 55.031742,55.032334 0 0 0 112.18179,71.972026 55.031742,55.032334 0 0 0 98.789855,35.983807 Z"
     style="fill:#a1beb0;fill-opacity:1;stroke-width:2.60343"
     id="path7" />
  <path
     d="m 110.686,-90.93 a 16.933,16.933 0 0 1 -16.933,16.934 16.933,16.933 0 0 1 -16.933,-16.933 16.933,16.933 0 0 1 16.933,-16.933 16.933,16.933 0 0 1 16.933,16.933 z"
     clip-path="url(#a)"
     style="fill:#a1beb0;fill-opacity:1;stroke-width:0.536018"
     transform="matrix(1.9999906,0,0,2.0000122,-130.35307,253.83313)"
     id="path9" />
</svg>
